#!OML:ASF F:\twosubjects\two\Thursday\Session 1\Rory.ASF
:FULLY-SPECIFIED
:DEGREES
625
root 7.33448 15.5164 10.9959 -146.964 -13.4474 165.306
lowerback 17.6008 1.2247 12.3128
upperback 4.18678 2.95447 8.20652
thorax -5.03656 0.780402 1.32633
lowerneck -6.26062 -11.5517 -7.83565
upperneck 2.13596 -15.729 15.0981
head 3.51055 -7.42856 4.84255
rclavicle 8.5875e-014 1.33583e-013
rhumerus 49.6449 -28.0148 -110.563
rradius 107.675
rwrist -129.314
rhand -45.2475 21.667
rfingers 7.12502
rthumb -18.0218 -7.51801
lclavicle 8.5875e-014 1.33583e-013
lhumerus -21.8853 -57.9194 118.165
lradius 81.0059
lwrist 7.54495
lhand -36.4513 57.3944
lfingers 7.12502
lthumb -9.54527 -992.842
rfemur -0.193046 17.8543 -20.0927
rtibia 28.4849
rfoot -5.72999 -30.664
rtoes -22.4046
lfemur -71.9377 16.4174 -33.3771
ltibia 68.2337
lfoot -20.1901 -3.52268
ltoes -12.2439
626
root 7.34111 15.5349 10.9874 -147.104 -13.5301 164.989
lowerback 17.7519 1.19378 12.3043
upperback 4.19395 2.93489 8.23997
thorax -5.11358 0.765422 1.37064
lowerneck -6.31615 -11.5939 -7.96058
upperneck 2.23032 -15.8036 15.2346
head 3.57851 -7.45603 4.88795
rclavicle 2.22639e-014 -6.99722e-014
rhumerus 49.5566 -27.8794 -110.485
rradius 107.744
rwrist -129.265
rhand -45.08 21.9319
rfingers 7.12502
rthumb -17.8606 -7.26797
lclavicle 2.22639e-014 -6.99722e-014
lhumerus -21.8474 -58.0231 118.212
lradius 80.9162
lwrist 7.63141
lhand -36.6257 56.9977
lfingers 7.12502
lthumb -9.71355 -993.246
rfemur 0.274709 17.8329 -20.1279
rtibia 28.2221
rfoot -3.55311 -30.59
rtoes -26.2142
lfemur -71.6587 16.381 -33.5237
ltibia 68.1719
lfoot -20.1076 -3.93099
ltoes -10.9394
627
root 7.34576 15.5684 10.9739 -147.273 -13.6598 164.689
lowerback 17.8403 1.20279 12.345
upperback 4.21984 2.96048 8.27355
thorax -5.12981 0.7742 1.37928
lowerneck -6.34925 -11.6388 -7.7309
upperneck 2.1681 -15.845 14.9718
head 3.52795 -7.48075 4.77272
rclavicle -4.45278e-014 -1.01778e-013
rhumerus 49.5214 -28.0223 -110.483
rradius 107.862
rwrist -129.569
rhand -44.9547 22.3641
rfingers 7.12502
rthumb -17.7401 -6.84663
lclavicle -4.45278e-014 -1.01778e-013
lhumerus -22.0187 -58.2688 118.506
lradius 80.7478
lwrist 7.70812
lhand -36.6873 56.9274
lfingers 7.12502
lthumb -9.773 -993.319
rfemur 0.785043 17.7096 -20.111
rtibia 27.9452
rfoot -2.62593 -30.4911
rtoes -27.8969
lfemur -71.2312 16.4166 -33.7391
ltibia 68.014
lfoot -20.0278 -4.38472
ltoes -9.52337
628
root 7.35691 15.5856 10.9638 -147.44 -13.6771 164.481
lowerback 17.8771 1.31435 12.2405
upperback 4.11163 3.12918 8.28113
thorax -5.26772 0.855124 1.40875
lowerneck -5.47592 -11.6303 -7.67297
upperneck 1.8155 -15.8681 15.1994
head 3.2978 -7.5369 4.88924
rclavicle 5.40694e-014 6.36111e-015
rhumerus 49.3932 -28.4447 -110.498
rradius 108.123
rwrist -129.68
rhand -44.9388 22.8246
rfingers 7.12502
rthumb -17.7248 -6.38757
lclavicle 5.40694e-014 6.36111e-015
lhumerus -22.7628 -58.5935 119.254
lradius 80.5703
lwrist 8.09203
lhand -36.4487 56.7426
lfingers 7.12502
lthumb -9.54276 -993.494
rfemur 1.21664 17.6946 -20.0899
rtibia 27.6604
rfoot -2.85091 -30.6816
rtoes -27.1342
lfemur -70.8847 16.6472 -33.9607
ltibia 67.8425
lfoot -19.8827 -5.12929
ltoes -6.91294
629
root 7.36854 15.5931 10.959 -147.518 -13.7447 164.146
lowerback 17.9855 1.30307 12.2843
upperback 4.28846 3.10288 8.20738
thorax -5.12502 0.849107 1.30753
lowerneck -6.36725 -11.7114 -7.40242
upperneck 2.07223 -16.0078 15.3705
head 3.53143 -7.55015 4.82725
rclavicle 1.43125e-013 2.13097e-013
rhumerus 49.9128 -28.3202 -110.781
rradius 108.201
rwrist -129.33
rhand -44.705 22.926
rfingers 7.12502
rthumb -17.4998 -6.30634
lclavicle 1.43125e-013 2.13097e-013
lhumerus -21.8897 -59.0158 118.478
lradius 80.4891
lwrist 8.74736
lhand -36.1589 56.5417
lfingers 7.12502
lthumb -9.26311 -993.682
rfemur 1.61514 17.5633 -20.1905
rtibia 27.4624
rfoot -2.99186 -30.8775
rtoes -26.5609
lfemur -70.6008 16.6699 -34.2478
ltibia 67.6585
lfoot -19.748 -5.6143
ltoes -4.63712
630
root 7.37503 15.5985 10.9534 -147.447 -13.9522 163.951
lowerback 17.8811 1.15326 12.3307
upperback 4.22815 2.89903 8.34381
thorax -5.15112 0.742911 1.47654
lowerneck -6.51678 -11.6066 -7.52138
upperneck 2.3342 -15.8907 15.3724
head 3.63057 -7.47882 4.84186
rclavicle 5.40694e-014 3.18055e-015
rhumerus 49.6313 -28.0167 -110.533
rradius 108.085
rwrist -129.182
rhand -44.4753 22.8783
rfingers 7.12502
rthumb -17.2787 -6.37354
lclavicle 5.40694e-014 3.18055e-015
lhumerus -21.8158 -58.5239 118.355
lradius 80.6882
lwrist 8.93726
lhand -35.7192 56.9632
lfingers 7.12502
lthumb -8.83881 -993.242
rfemur 1.74321 17.1403 -20.2059
rtibia 27.4911
rfoot -3.2003 -30.9358
rtoes -26.1028
lfemur -70.511 16.536 -34.3712
ltibia 67.5059
lfoot -19.689 -5.56386
ltoes -4.3596
